<mxfile host="app.diagrams.net" modified="2023-07-08T19:58:58.485Z" agent="Mozilla/5.0 (Windows NT 10.0; Win64; x64) AppleWebKit/537.36 (KHTML, like Gecko) Chrome/114.0.0.0 Safari/537.36" version="21.6.1" etag="N9YngDd6ZHa6QcPV5Lm2" type="github">
  <diagram name="Page-1" id="FvdcYNQcxyOA_QIwPACg">
    <mxGraphModel>
      <root>
        <mxCell id="0" />
        <mxCell id="1" parent="0" />
      </root>
    </mxGraphModel>
  </diagram>
</mxfile>
